<svg width="38" height="38" viewBox="0 0 38 38" fill="none" xmlns="http://www.w3.org/2000/svg">
<g clip-path="url(#clip0_315_2392)">
<path d="M16.4884 36.7511C15.0262 36.5745 13.6265 36.2284 12.3066 35.7349C12.1574 35.6791 12.0091 35.6214 11.8619 35.5618C4.47134 32.572 -0.28565 24.9107 0.749366 16.6171C0.844971 15.851 0.987201 15.102 1.17286 14.3724C1.22464 14.1689 1.27981 13.9669 1.33828 13.7665C3.78458 5.38176 12.023 -0.25364 20.9716 0.827381C30.9008 2.02688 37.9485 11.0419 36.7106 20.9614C36.681 21.1978 36.5288 22.1354 36.5288 22.1354C36.4306 22.5959 36.3438 22.9155 36.2681 23.0942" stroke="white" stroke-width="1.1" stroke-linecap="round" stroke-linejoin="round"/>
<path d="M13.0757 24.3092L25.338 13.5693L37.6003 24.3092" stroke="white" stroke-width="1.1" stroke-linecap="round" stroke-linejoin="round"/>
<path d="M15.8008 22.4141L16.482 36.9445" stroke="white" stroke-width="1.1" stroke-linecap="round" stroke-linejoin="round"/>
<path fill-rule="evenodd" clip-rule="evenodd" d="M32.8316 28.4155C32.8316 30.6832 31.0015 32.5219 28.7442 32.5219C26.4869 32.5219 24.6567 30.6832 24.6567 28.4155C24.6567 26.1478 26.4869 24.3091 28.7442 24.3091C31.0015 24.3091 32.8316 26.1478 32.8316 28.4155Z" stroke="white" stroke-width="1.1" stroke-linecap="round" stroke-linejoin="round"/>
<path d="M23.2944 36.9443C23.2944 34.5023 25.8876 32.522 29.085 32.522C32.2823 32.522 34.8755 34.5023 34.8755 36.9443" stroke="white" stroke-width="1.1" stroke-linecap="round" stroke-linejoin="round"/>
</g>
<defs>
<clipPath id="clip0_315_2392">
<rect width="37.4" height="37.4" fill="white" transform="translate(0.200195 0.109863)"/>
</clipPath>
</defs>
</svg>
