<svg width="30" height="42" viewBox="0 0 30 42" fill="none" xmlns="http://www.w3.org/2000/svg">
<path fill-rule="evenodd" clip-rule="evenodd" d="M17.9796 34.7495H12.0213C11.7232 34.7495 11.4805 35.0553 11.4805 35.4311V35.9088C11.4805 36.2466 12.7817 40.4226 12.7817 40.4226C12.8455 40.7105 13.0536 40.9095 13.2907 40.9095H16.6992C16.9361 40.9095 17.1444 40.7105 17.208 40.4226C17.208 40.4226 18.5205 36.2516 18.5205 35.9088V35.4311C18.5205 35.0553 18.2779 34.7495 17.9796 34.7495Z" stroke="white" stroke-width="0.88"/>
<path fill-rule="evenodd" clip-rule="evenodd" d="M29.0799 13.7056C29.0799 6.41197 23.4416 1.53174 15.5379 1.31969C15.3889 1.31207 15.2599 1.30957 15.1592 1.30957C15.0943 1.30957 15.0414 1.31057 15.002 1.31157C14.9566 1.31057 14.9033 1.30957 14.8388 1.30957C14.7372 1.30957 14.6067 1.31207 14.4561 1.31981C6.55506 1.53424 0.919922 6.41359 0.919922 13.7056C0.919922 19.4516 4.19496 22.5734 6.86045 25.2916C6.86345 25.2946 10.9607 29.2562 11.5101 29.7578L13.0197 31.116C13.1025 31.1892 13.2116 31.2296 13.3267 31.2296H16.6697C16.7851 31.2296 16.8942 31.1891 16.9772 31.1158C17.7511 30.4312 23.3839 25.0375 23.4531 24.9663C23.4531 24.9663 23.4601 24.959 23.4614 24.9577C25.314 23.0468 29.0799 19.4516 29.0799 13.7056Z" stroke="white" stroke-width="0.88"/>
</svg>
