<svg width="16" height="16" viewBox="0 0 16 16" fill="none" xmlns="http://www.w3.org/2000/svg">
<path d="M11.3425 14.7875C10.608 14.7875 9.8345 14.612 9.035 14.274C8.255 13.9425 7.4685 13.4875 6.7015 12.935C5.941 12.376 5.2065 11.752 4.511 11.0695C3.822 10.374 3.198 9.6395 2.6455 8.8855C2.0865 8.1055 1.638 7.3255 1.3195 6.5715C0.9815 5.7655 0.8125 4.9855 0.8125 4.251C0.8125 3.744 0.9035 3.263 1.079 2.8145C1.261 2.353 1.5535 1.924 1.95 1.5535C2.4505 1.0595 3.0225 0.8125 3.6335 0.8125C3.887 0.8125 4.147 0.871 4.368 0.975C4.6215 1.092 4.836 1.2675 4.992 1.5015L6.5 3.627C6.6365 3.8155 6.7405 3.9975 6.812 4.1795C6.8965 4.3745 6.942 4.5695 6.942 4.758C6.942 5.005 6.8705 5.2455 6.734 5.473C6.6365 5.6485 6.487 5.837 6.2985 6.0255L5.8565 6.487C5.863 6.5065 5.8695 6.5195 5.876 6.5325C5.954 6.669 6.11 6.903 6.409 7.254C6.7275 7.618 7.0265 7.9495 7.3255 8.255C7.709 8.632 8.0275 8.931 8.3265 9.178C8.697 9.49 8.9375 9.646 9.0805 9.7175L9.0675 9.75L9.542 9.282C9.7435 9.0805 9.9385 8.931 10.127 8.8335C10.4845 8.6125 10.9395 8.5735 11.3945 8.762C11.5635 8.8335 11.7455 8.931 11.9405 9.0675L14.0985 10.6015C14.339 10.764 14.5145 10.972 14.6185 11.219C14.716 11.466 14.7615 11.6935 14.7615 11.921C14.7615 12.233 14.69 12.545 14.5535 12.8375C14.417 13.13 14.248 13.3835 14.0335 13.6175C13.663 14.027 13.26 14.3195 12.792 14.508C12.3435 14.69 11.856 14.7875 11.3425 14.7875ZM3.6335 1.7875C3.276 1.7875 2.9445 1.9435 2.626 2.2555C2.327 2.535 2.119 2.8405 1.989 3.172C1.8525 3.51 1.7875 3.8675 1.7875 4.251C1.7875 4.8555 1.9305 5.512 2.2165 6.188C2.509 6.877 2.9185 7.592 3.4385 8.307C3.9585 9.022 4.55 9.7175 5.2 10.374C5.85 11.0175 6.552 11.6155 7.2735 12.142C7.9755 12.6555 8.697 13.0715 9.412 13.3705C10.5235 13.845 11.5635 13.9555 12.4215 13.598C12.753 13.4615 13.0455 13.2535 13.312 12.9545C13.4615 12.792 13.5785 12.6165 13.676 12.4085C13.754 12.246 13.793 12.077 13.793 11.908C13.793 11.804 13.7735 11.7 13.7215 11.583C13.702 11.544 13.663 11.4725 13.5395 11.388L11.3815 9.854C11.2515 9.763 11.1345 9.698 11.024 9.6525C10.881 9.594 10.8225 9.5355 10.6015 9.672C10.4715 9.737 10.3545 9.8345 10.2245 9.9645L9.7305 10.452C9.477 10.699 9.087 10.7575 8.788 10.647L8.6125 10.569C8.346 10.426 8.034 10.205 7.6895 9.9125C7.3775 9.646 7.0395 9.334 6.63 8.931C6.3115 8.606 5.993 8.2615 5.6615 7.878C5.356 7.5205 5.135 7.215 4.9985 6.9615L4.9205 6.7665C4.8815 6.617 4.8685 6.5325 4.8685 6.4415C4.8685 6.2075 4.953 5.9995 5.1155 5.837L5.603 5.33C5.733 5.2 5.8305 5.0765 5.8955 4.966C5.9475 4.8815 5.967 4.81 5.967 4.745C5.967 4.693 5.9475 4.615 5.915 4.537C5.8695 4.433 5.798 4.316 5.707 4.1925L4.199 2.0605C4.134 1.9695 4.056 1.9045 3.9585 1.859C3.8545 1.8135 3.744 1.7875 3.6335 1.7875ZM9.0675 9.7565L8.9635 10.1985L9.139 9.7435C9.1065 9.737 9.0805 9.7435 9.0675 9.7565Z" fill="#FBFBFB"/>
</svg>
