<svg width="133" height="132" viewBox="0 0 133 132" fill="none" xmlns="http://www.w3.org/2000/svg">
<path opacity="0.8" d="M23.6728 16.8171L25.9945 30.6335C27.4901 39.5446 31.7548 47.7691 38.192 54.1567L50.1276 66.0014L47.3111 71.5987C45.7318 74.726 46.3504 78.5033 48.8394 80.9734L58.6498 90.7091C60.1782 92.2258 61.0442 94.2987 61.0442 96.4509V104.316C61.0442 107.393 62.7909 110.202 65.571 111.582L66.6845 112.131C69.8358 113.698 73.6421 113.084 76.1311 110.614L81.3929 105.392C89.5066 97.3386 95.2623 87.248 98.0444 76.1994C98.4063 74.7671 98.3538 73.2626 97.8929 71.8586C97.432 70.4545 96.5815 69.208 95.439 68.262L85.7595 60.2596C83.9328 58.7429 81.5239 58.1001 79.1732 58.4901L70.6582 59.8985C69.3733 60.1108 68.0559 60.0157 66.8154 59.6213C65.575 59.2269 64.4473 58.5445 63.5259 57.6307L61.379 55.5001C60.6187 54.7456 60.0156 53.8499 59.6041 52.8641C59.1927 51.8783 58.9809 50.8217 58.9809 49.7547C58.9809 48.6877 59.1927 47.6311 59.6041 46.6453C60.0156 45.6595 60.6187 44.7638 61.379 44.0093L62.3251 43.0559C63.5416 41.8488 65.1104 41.0526 66.8087 40.7803C68.507 40.508 70.2486 40.7736 71.7862 41.5392L76.1747 43.7204C77.2806 44.2714 78.5333 44.4627 79.7549 44.267C80.9765 44.0714 82.105 43.4987 82.98 42.6303C83.855 41.762 84.432 40.6422 84.6292 39.4298C84.8264 38.2175 84.6337 36.9743 84.0784 35.8769L82.8776 33.5007L92.0184 27.4556C96.7588 24.317 100.592 20.0053 103.139 14.9465L104.201 12.8375M23.6728 16.8171C13.3538 25.6666 6.07566 37.4919 2.85388 50.6433C-0.367909 63.7947 0.627349 77.6161 5.7008 90.1792C10.7742 102.742 19.6728 113.42 31.155 120.724C42.6372 128.027 56.1303 131.592 69.7518 130.92C83.3732 130.248 96.4436 125.373 107.139 116.976C117.835 108.578 125.623 97.0771 129.416 84.0766C133.209 71.0761 132.818 57.2249 128.298 44.4554C123.778 31.6859 115.354 20.6279 104.201 12.8375M23.6728 16.8171C35.5611 6.59315 50.7714 0.97601 66.5026 1.00008C80.5414 1.00008 93.5468 5.37683 104.201 12.8375" stroke="#003DA5" stroke-width="1.5" stroke-linecap="round" stroke-linejoin="round"/>
</svg>
