<svg width="132" height="132" viewBox="0 0 132 132" fill="none" xmlns="http://www.w3.org/2000/svg">
<path d="M89.9333 81.8C91.3215 87.6738 91.3625 93.7856 90.0531 99.6775C88.7438 105.569 86.118 111.089 82.3727 115.822C78.6274 120.555 73.8595 124.379 68.4263 127.007C62.9932 129.636 57.0356 131.001 51 131V99M89.9333 81.8C102.666 72.5252 113.024 60.37 120.161 46.3272C127.298 32.2844 131.012 16.7525 131 1.00003C115.249 0.988651 99.718 4.70326 85.6765 11.8405C71.635 18.9777 59.4808 29.335 50.2067 42.0667M89.9333 81.8C78.346 90.2752 65.0688 96.1428 51 99M51 99C50.3133 99.14 49.62 99.2733 48.9267 99.4C42.8786 94.6041 37.4025 89.1281 32.6067 83.08C32.7326 82.3853 32.8593 81.6919 33 81M50.2067 42.0667C44.3324 40.6773 38.2199 40.6355 32.3271 41.9443C26.4344 43.2531 20.9143 45.8786 16.1805 49.6241C11.4467 53.3696 7.62198 58.1379 4.99299 63.5716C2.364 69.0054 0.998901 74.9637 1 81H33M50.2067 42.0667C41.7325 53.6521 35.8584 66.9336 33 81M18.0733 96.9333C13.6879 100.194 10.2782 104.593 8.2135 109.653C6.14882 114.713 5.50785 120.242 6.36 125.64C11.7588 126.491 17.2877 125.849 22.3478 123.784C27.408 121.718 31.8064 118.307 35.0667 113.92M96 46C96 48.6522 94.9464 51.1957 93.071 53.0711C91.1957 54.9464 88.6522 56 86 56C83.3478 56 80.8043 54.9464 78.9289 53.0711C77.0536 51.1957 76 48.6522 76 46C76 43.3479 77.0536 40.8043 78.9289 38.929C80.8043 37.0536 83.3478 36 86 36C88.6522 36 91.1957 37.0536 93.071 38.929C94.9464 40.8043 96 43.3479 96 46Z" stroke="white" stroke-width="1.5" stroke-linecap="round" stroke-linejoin="round"/>
</svg>
