<svg width="87" height="122" viewBox="0 0 87 122" fill="none" xmlns="http://www.w3.org/2000/svg">
<path fill-rule="evenodd" clip-rule="evenodd" d="M52.6954 102.333H34.6399C33.7366 102.333 33.001 103.26 33.001 104.398V105.846C33.001 106.87 36.944 119.524 36.944 119.524C37.1376 120.397 37.7679 121 38.4865 121H48.8154C49.5333 121 50.1643 120.397 50.3572 119.524C50.3572 119.524 54.3343 106.885 54.3343 105.846V104.398C54.3343 103.26 53.5994 102.333 52.6954 102.333Z" stroke="white" stroke-width="0.88"/>
<path fill-rule="evenodd" clip-rule="evenodd" d="M86.3333 38.5638C86.3333 16.4618 69.2476 1.67326 45.2968 1.03065C44.8455 1.00757 44.4545 1 44.1492 1C43.9527 1 43.7922 1.00303 43.6731 1.00606C43.5353 1.00303 43.374 1 43.1783 1C42.8705 1 42.475 1.00757 42.0187 1.03103C18.0762 1.68083 1 16.4667 1 38.5638C1 55.9758 10.9244 65.4358 19.0016 73.6727C19.0107 73.6818 31.4267 85.6868 33.0914 87.2067L37.6659 91.3227C37.917 91.5444 38.2476 91.6667 38.5963 91.6667H48.7267C49.0763 91.6667 49.4068 91.5441 49.6583 91.3219C52.0035 89.2473 69.0726 72.9029 69.2824 72.6872C69.2824 72.6872 69.3035 72.6649 69.3076 72.6611C74.9214 66.8705 86.3333 55.9758 86.3333 38.5638Z" stroke="white" stroke-width="0.88"/>
<mask id="path-3-outside-1_690_2390" maskUnits="userSpaceOnUse" x="8" y="27" width="31" height="22" fill="black">
<rect fill="white" x="8" y="27" width="31" height="22"/>
<path d="M10.352 48L10.996 44.22H8.812V39.712H11.78L12.312 36.576H9.736V32.068H13.096L13.712 28.4H17.772L17.128 32.068H20.684L21.3 28.4H25.36L24.744 32.068H26.928V36.576H23.96L23.428 39.712H26.004V44.22H22.672L22 48H17.94L18.612 44.22H15.056L14.412 48H10.352ZM15.7 39.824H19.452L20.012 36.464H16.288L15.7 39.824ZM32.3335 48V33.328L29.0295 34.084L27.9935 29.884L33.7335 28.26H37.6815V48H32.3335Z"/>
</mask>
<path d="M10.352 48L9.66194 47.8824L9.52265 48.7H10.352V48ZM10.996 44.22L11.6861 44.3376L11.8253 43.52H10.996V44.22ZM8.812 44.22H8.112V44.92H8.812V44.22ZM8.812 39.712V39.012H8.112V39.712H8.812ZM11.78 39.712V40.412H12.3713L12.4701 39.8291L11.78 39.712ZM12.312 36.576L13.0021 36.6931L13.1408 35.876H12.312V36.576ZM9.736 36.576H9.036V37.276H9.736V36.576ZM9.736 32.068V31.368H9.036V32.068H9.736ZM13.096 32.068V32.768H13.6882L13.7863 32.1839L13.096 32.068ZM13.712 28.4V27.7H13.1198L13.0217 28.2841L13.712 28.4ZM17.772 28.4L18.4615 28.521L18.6056 27.7H17.772V28.4ZM17.128 32.068L16.4385 31.947L16.2944 32.768H17.128V32.068ZM20.684 32.068V32.768H21.2762L21.3743 32.1839L20.684 32.068ZM21.3 28.4V27.7H20.7078L20.6097 28.2841L21.3 28.4ZM25.36 28.4L26.0503 28.5159L26.1874 27.7H25.36V28.4ZM24.744 32.068L24.0537 31.9521L23.9166 32.768H24.744V32.068ZM26.928 32.068H27.628V31.368H26.928V32.068ZM26.928 36.576V37.276H27.628V36.576H26.928ZM23.96 36.576V35.876H23.3688L23.2699 36.4589L23.96 36.576ZM23.428 39.712L22.7379 39.5949L22.5992 40.412H23.428V39.712ZM26.004 39.712H26.704V39.012H26.004V39.712ZM26.004 44.22V44.92H26.704V44.22H26.004ZM22.672 44.22V43.52H22.0855L21.9828 44.0975L22.672 44.22ZM22 48V48.7H22.5865L22.6892 48.1225L22 48ZM17.94 48L17.2508 47.8775L17.1046 48.7H17.94V48ZM18.612 44.22L19.3012 44.3425L19.4474 43.52H18.612V44.22ZM15.056 44.22V43.52H14.4652L14.3659 44.1024L15.056 44.22ZM14.412 48V48.7H15.0028L15.1021 48.1176L14.412 48ZM15.7 39.824L15.0105 39.7033L14.8669 40.524H15.7V39.824ZM19.452 39.824V40.524H20.045L20.1425 39.9391L19.452 39.824ZM20.012 36.464L20.7025 36.5791L20.8383 35.764H20.012V36.464ZM16.288 36.464V35.764H15.6999L15.5985 36.3433L16.288 36.464ZM11.0421 48.1176L11.6861 44.3376L10.3059 44.1024L9.66194 47.8824L11.0421 48.1176ZM10.996 43.52H8.812V44.92H10.996V43.52ZM9.512 44.22V39.712H8.112V44.22H9.512ZM8.812 40.412H11.78V39.012H8.812V40.412ZM12.4701 39.8291L13.0021 36.6931L11.6219 36.4589L11.0899 39.5949L12.4701 39.8291ZM12.312 35.876H9.736V37.276H12.312V35.876ZM10.436 36.576V32.068H9.036V36.576H10.436ZM9.736 32.768H13.096V31.368H9.736V32.768ZM13.7863 32.1839L14.4023 28.5159L13.0217 28.2841L12.4057 31.9521L13.7863 32.1839ZM13.712 29.1H17.772V27.7H13.712V29.1ZM17.0825 28.2789L16.4385 31.947L17.8175 32.189L18.4615 28.521L17.0825 28.2789ZM17.128 32.768H20.684V31.368H17.128V32.768ZM21.3743 32.1839L21.9903 28.5159L20.6097 28.2841L19.9937 31.9521L21.3743 32.1839ZM21.3 29.1H25.36V27.7H21.3V29.1ZM24.6697 28.2841L24.0537 31.9521L25.4343 32.1839L26.0503 28.5159L24.6697 28.2841ZM24.744 32.768H26.928V31.368H24.744V32.768ZM26.228 32.068V36.576H27.628V32.068H26.228ZM26.928 35.876H23.96V37.276H26.928V35.876ZM23.2699 36.4589L22.7379 39.5949L24.1181 39.8291L24.6501 36.6931L23.2699 36.4589ZM23.428 40.412H26.004V39.012H23.428V40.412ZM25.304 39.712V44.22H26.704V39.712H25.304ZM26.004 43.52H22.672V44.92H26.004V43.52ZM21.9828 44.0975L21.3108 47.8775L22.6892 48.1225L23.3612 44.3425L21.9828 44.0975ZM22 47.3H17.94V48.7H22V47.3ZM18.6292 48.1225L19.3012 44.3425L17.9228 44.0975L17.2508 47.8775L18.6292 48.1225ZM18.612 43.52H15.056V44.92H18.612V43.52ZM14.3659 44.1024L13.7219 47.8824L15.1021 48.1176L15.7461 44.3376L14.3659 44.1024ZM14.412 47.3H10.352V48.7H14.412V47.3ZM15.7 40.524H19.452V39.124H15.7V40.524ZM20.1425 39.9391L20.7025 36.5791L19.3215 36.3489L18.7615 39.7089L20.1425 39.9391ZM20.012 35.764H16.288V37.164H20.012V35.764ZM15.5985 36.3433L15.0105 39.7033L16.3895 39.9447L16.9775 36.5847L15.5985 36.3433ZM32.3335 48H31.6335V48.7H32.3335V48ZM32.3335 33.328H33.0335V32.4497L32.1774 32.6456L32.3335 33.328ZM29.0295 34.084L28.3499 34.2516L28.5147 34.9199L29.1857 34.7664L29.0295 34.084ZM27.9935 29.884L27.803 29.2104L27.1518 29.3947L27.3139 30.0516L27.9935 29.884ZM33.7335 28.26V27.56H33.6364L33.543 27.5864L33.7335 28.26ZM37.6815 28.26H38.3815V27.56H37.6815V28.26ZM37.6815 48V48.7H38.3815V48H37.6815ZM33.0335 48V33.328H31.6335V48H33.0335ZM32.1774 32.6456L28.8734 33.4016L29.1857 34.7664L32.4897 34.0104L32.1774 32.6456ZM29.7092 33.9164L28.6732 29.7164L27.3139 30.0516L28.3499 34.2516L29.7092 33.9164ZM28.1841 30.5576L33.9241 28.9336L33.543 27.5864L27.803 29.2104L28.1841 30.5576ZM33.7335 28.96H37.6815V27.56H33.7335V28.96ZM36.9815 28.26V48H38.3815V28.26H36.9815ZM37.6815 47.3H32.3335V48.7H37.6815V47.3Z" fill="#FFFCFC" mask="url(#path-3-outside-1_690_2390)"/>
</svg>
