<svg width="132" height="132" viewBox="0 0 132 132" fill="none" xmlns="http://www.w3.org/2000/svg">
<path opacity="0.8" d="M38.9167 1V11.8333M11.8333 38.9167H1M131 38.9167H120.167M11.8333 66H1M131 66H120.167M11.8333 93.0833H1M131 93.0833H120.167M38.9167 120.167V131M66 1V11.8333M66 120.167V131M93.0833 1V11.8333M93.0833 120.167V131M28.0833 120.167H103.917C108.226 120.167 112.36 118.455 115.407 115.407C118.455 112.36 120.167 108.226 120.167 103.917V28.0833C120.167 23.7736 118.455 19.6403 115.407 16.5928C112.36 13.5454 108.226 11.8333 103.917 11.8333H28.0833C23.7736 11.8333 19.6403 13.5454 16.5928 16.5928C13.5454 19.6403 11.8333 23.7736 11.8333 28.0833V103.917C11.8333 108.226 13.5454 112.36 16.5928 115.407C19.6403 118.455 23.7736 120.167 28.0833 120.167ZM33.5 33.5H98.5V98.5H33.5V33.5Z" stroke="#007DC3" stroke-width="1.5" stroke-linecap="round" stroke-linejoin="round"/>
</svg>
