<svg width="115" height="102" viewBox="0 0 115 102" fill="none" xmlns="http://www.w3.org/2000/svg">
<path opacity="0.8" d="M86.842 69.2376C89.5539 67.3857 92.7346 66.3395 96.0163 66.2199C99.298 66.1003 102.546 66.9122 105.386 68.5618C108.225 70.2114 110.54 72.6312 112.061 75.5412C113.583 78.4513 114.25 81.7326 113.984 85.0057C107.029 87.4366 99.6407 88.3826 92.2971 87.7825C92.2746 81.2122 90.3825 74.7783 86.842 69.2434C83.6995 64.3146 79.3645 60.2581 74.2382 57.4493C69.1119 54.6404 63.3599 53.1699 57.5145 53.1739C51.6701 53.1709 45.9193 54.6418 40.7941 57.4506C35.6689 60.2595 31.3349 64.3155 28.1928 69.2434M92.2913 87.7767L92.2971 87.9564C92.2971 89.2608 92.2275 90.5478 92.0826 91.8173C81.563 97.8528 69.6426 101.019 57.5145 101C44.9348 101 33.1261 97.6608 22.9464 91.8173C22.7974 90.4757 22.7258 89.1266 22.732 87.7767M22.732 87.7767C15.3907 88.3986 8.00679 87.4561 1.0566 85.0115C0.791973 81.7394 1.45889 78.4591 2.98025 75.55C4.5016 72.641 6.81526 70.2219 9.65371 68.5726C12.4922 66.9232 15.7395 66.111 19.0202 66.2297C22.3009 66.3484 25.481 67.3932 28.1928 69.2434M22.732 87.7767C22.7528 81.207 24.6544 74.7789 28.1928 69.2434M74.9058 18.3913C74.9058 23.0037 73.0735 27.4273 69.812 30.6888C66.5505 33.9503 62.127 35.7826 57.5145 35.7826C52.9021 35.7826 48.4785 33.9503 45.217 30.6888C41.9555 27.4273 40.1232 23.0037 40.1232 18.3913C40.1232 13.7788 41.9555 9.35529 45.217 6.09379C48.4785 2.83229 52.9021 1 57.5145 1C62.127 1 66.5505 2.83229 69.812 6.09379C73.0735 9.35529 74.9058 13.7788 74.9058 18.3913ZM109.688 35.7826C109.688 37.4955 109.351 39.1916 108.696 40.7741C108.04 42.3566 107.079 43.7945 105.868 45.0057C104.657 46.2169 103.219 47.1777 101.636 47.8332C100.054 48.4887 98.3578 48.826 96.6449 48.826C94.932 48.826 93.2359 48.4887 91.6534 47.8332C90.0709 47.1777 88.633 46.2169 87.4218 45.0057C86.2106 43.7945 85.2498 42.3566 84.5943 40.7741C83.9388 39.1916 83.6015 37.4955 83.6015 35.7826C83.6015 32.3232 84.9757 29.0056 87.4218 26.5595C89.8679 24.1133 93.1856 22.7391 96.6449 22.7391C100.104 22.7391 103.422 24.1133 105.868 26.5595C108.314 29.0056 109.688 32.3232 109.688 35.7826ZM31.4276 35.7826C31.4276 37.4955 31.0902 39.1916 30.4347 40.7741C29.7792 42.3566 28.8185 43.7945 27.6073 45.0057C26.3961 46.2169 24.9582 47.1777 23.3756 47.8332C21.7931 48.4887 20.097 48.826 18.3841 48.826C16.6712 48.826 14.9751 48.4887 13.3926 47.8332C11.8101 47.1777 10.3722 46.2169 9.161 45.0057C7.9498 43.7945 6.98903 42.3566 6.33354 40.7741C5.67804 39.1916 5.34066 37.4955 5.34066 35.7826C5.34066 32.3232 6.71488 29.0056 9.161 26.5595C11.6071 24.1133 14.9248 22.7391 18.3841 22.7391C21.8435 22.7391 25.1611 24.1133 27.6073 26.5595C30.0534 29.0056 31.4276 32.3232 31.4276 35.7826Z" stroke="#007DC3" stroke-width="1.5" stroke-linecap="round" stroke-linejoin="round"/>
</svg>
