<svg width="131" height="132" viewBox="0 0 131 132" fill="none" xmlns="http://www.w3.org/2000/svg">
<path d="M95.3358 111H35.402M95.3358 111C100.634 111 105.716 113.107 109.462 116.858C113.209 120.609 115.314 125.696 115.314 131H15.4241C15.4241 125.696 17.5289 120.609 21.2755 116.858C25.0221 113.107 30.1035 111 35.402 111M95.3358 111V88.5C95.3358 84.36 91.9862 81 87.8441 81H82.0439M35.402 111V88.5C35.402 84.36 38.7583 81 42.8937 81H48.7007M82.0439 81H48.7007M82.0439 81C78.3035 74.533 76.0682 67.3048 75.5044 59.8533M48.7007 81C52.4387 74.5324 54.6717 67.3043 55.2334 59.8533M75.5044 59.8533C82.2167 58.3026 88.4746 55.2227 93.8042 50.8533M75.5044 59.8533C68.835 61.3933 61.9029 61.3933 55.2334 59.8533M55.2334 59.8533C48.5235 58.3016 42.2614 55.2218 36.9337 50.8533M20.4186 14.24C13.8791 15.1933 7.40626 16.3533 1 17.7067C2.48501 26.4319 6.81743 34.4182 13.3194 40.4158C19.8213 46.4135 28.1259 50.0841 36.9337 50.8533M20.4186 14.24V16C20.4186 30.0533 26.8515 42.6 36.9337 50.8533M20.4186 14.24V4.14C35.109 2.06667 50.1191 1 65.3689 1C80.6254 1 95.6355 2.06667 110.319 4.13333V14.24M110.319 14.24V16C110.319 30.0533 103.886 42.6 93.8042 50.8533M110.319 14.24C116.827 15.188 123.304 16.3442 129.738 17.7067C128.253 26.4309 123.922 34.4164 117.421 40.4139C110.921 46.4114 102.611 50.0827 93.8042 50.8533" stroke="white" stroke-width="1.5" stroke-linecap="round" stroke-linejoin="round"/>
</svg>
